<svg xmlns="http://www.w3.org/2000/svg" aria-hidden="true" overflow="hidden" style="position:absolute;width:0;height:0">
  <defs>
    <symbol id="icon-logo" viewBox="0 0 33 32">
      <path fill="var(--color1, #ffe6a3)" stroke="var(--color2, #ffd324)" stroke-width="2.86" d="M21.57 27.73a12.5 12.5 0 0 0 4.5-17.07l.04.05a12.39 12.39 0 0 0-17-4.52l.06-.03a12.5 12.5 0 0 0-4.5 17.07l-.04-.06a12.39 12.39 0 0 0 17 4.53l-.06.03z"/>
      <path fill="var(--color3, #27120a)" d="M11.8 16.81a5.8 5.8 0 0 1 2.04-6.09h.02a5.75 5.75 0 0 1 8.67 2l.01.03a5.8 5.8 0 0 1-.84 6.39 5.74 5.74 0 0 1-7.24 1.17l.03.02a5.82 5.82 0 0 1-2.68-3.48l-.01-.04zm10.62-2.85a5.27 5.27 0 0 0-4.34-3.85h-.03a5.2 5.2 0 0 0-5.2 2.55v.03a5.21 5.21 0 0 0 .38 5.84v-.02a5.23 5.23 0 0 0 5.53 1.87l-.04.01a5.27 5.27 0 0 0 3.16-2.42l.01-.03a5.22 5.22 0 0 0 .52-4.02l.01.04z"/>
      <path fill="var(--color4, #4d2211)" d="M24.58 14.03a1.11 1.11 0 0 0-.47-.42l.04-.06.1-.2.04-.08.06-.13.02-.08v-.01c.03-.1.05-.22.06-.35l.01-.1v-.33c-.02-.04-.02-.07-.02-.1l-.02-.1-.02-.12-.03-.09-.03-.12-.03-.08-.04-.11-.02-.07-.06-.13a8.92 8.92 0 0 0-2.04-2.62c-.2-.17-2.01-1.7-3.72-1.52-.14.02-.27.04-.4.08h.02c-.27.06-.63.32-1.01.7-.1-.11-.24-.2-.4-.26a4.76 4.76 0 0 0-1.96-.25c-1 .09-1.86.67-2.33 1.5v.01l-.06.1a.8.8 0 0 0-.6.02 4.5 4.5 0 0 0-2.88 5.3l.02.14v.01l.03.15a1.01 1.01 0 0 0 1.1.79h-.01c.24-.03.46-.14.63-.32.34-.35.79-.6 1.3-.67a.96.96 0 0 0 .5-.24c.2.09.44.13.67.1.6-.03 1.19.04 1.76.22a.93.93 0 0 0 .84-.15l.02.03.01.03.09.13.02.03.09.12.02.03.1.12.03.03.1.12.03.04.1.1.05.04.1.09.05.06c.24.2.51.4.8.58l.02.02.16.09c.14.08.3.16.47.23h.02l.32.12a.94.94 0 0 0 .06.8l.16.34.01.02.07.15.02.05.05.13.03.07.06.19v.02l.06.2.02.06.03.16.01.06.04.23c.03.25.13.48.28.68a.96.96 0 0 0-.15.57v.17c0 .15-.02.3-.05.44v-.02.03l-.03.14v.02l-.05.14v.01l-.06.15v.02c-.04.07-.06.12-.1.16h.01v.01l-.1.15a1.01 1.01 0 0 0 .81 1.59h.42l.2-.02h.08l.14-.02h.03c.16-.02.31-.05.47-.09l-.13-.58.14.58c1-.2 1.87-.73 2.5-1.47.51-.65.88-1.44 1.02-2.3v-.03l.02-.15a.81.81 0 0 0-.16-.48l.12-.1.15-.14.04-.04.09-.1.04-.04v-.02l.08-.08.04-.07.06-.08.05-.07.06-.09.03-.06.05-.09.03-.07.05-.1.03-.06.05-.15.02-.05.01-.03.02-.07.02-.08v-.02l.02-.06.02-.09.01-.06.01-.1.01-.06.01-.09v-.2c.02-.94-.36-1.79-.68-2.33z"/>
      <path fill="var(--color5, #de9f2d)" d="M16.66 8.5c-.49.82-1.52 2.84-1.22 4.75a.36.36 0 0 1-.27.41.34.34 0 0 1-.19 0 5.27 5.27 0 0 0-2.05-.24c-.41 0-.75-.3-.81-.68a5.4 5.4 0 0 1 .75-3.83l-.01.02c.97-1.65 2.77-1.28 3.6-1 .15.06.26.2.26.36v.04c-.01.06-.03.11-.06.16z"/>
      <path fill="var(--color2, #ffd324)" d="m16.13 9.51-.02-.01c-.1-.06-.2.1-.25.18-.18.3-.2.68-.4.98-.1.17-.25.3-.36.46-.14.2-.16.45-.21.68-.07.31-.17.6-.43.81a1.76 1.76 0 0 1-1.64.19h.02c-.7-.29-.76-1.08-.73-1.81a5.3 5.3 0 0 0 .01 1.75.83.83 0 0 0 .89.68 5.2 5.2 0 0 1 2.09.26.35.35 0 0 0 .34-.43c-.2-1.34.24-2.74.69-3.74z" opacity=".5"/>
      <path fill="var(--color5, #de9f2d)" d="m11.92 9.3.08-.02c.1 0 .2.08.22.18v.13c-.3.76-.72 2.27-.15 3.53.09.18-.07.4-.28.44-.63.1-1.2.4-1.65.86a.41.41 0 0 1-.7-.2c-.28-1.26-.37-3.75 2.48-4.92z"/>
      <path fill="var(--color2, #ffd324)" d="M11.83 11.02c-.09 0-.11.06-.16.18-.05.15-.09.3-.1.47-.03.32-.01.65-.08.97-.12.57-.7 1.07-1.25 1.23-.4.12-.73.04-.9-.24.02.2.06.4.1.6a.42.42 0 0 0 .52.3.42.42 0 0 0 .18-.12c.43-.44 1-.75 1.64-.85h.01c.2-.03.37-.25.28-.45a3.8 3.8 0 0 1-.24-2.09z" opacity=".5"/>
      <path fill="var(--color5, #de9f2d)" d="M23.67 12.86c1-1.52-1.9-4.03-1.9-4.03s-2-1.74-3.56-1.33c-.98.26-4.36 4.66-1.21 7.22 3.15 2.56 5.92-.7 6.67-1.86z"/>
      <path fill="var(--color2, #ffd324)" d="m23.23 10.47.06.13c.34.91.06 1.9-.55 2.63-.24.32-.57.56-.95.68h-.01c-.26.08-.53.07-.79.13-.29.08-.57.2-.82.35a3 3 0 0 1-2.87.02 2.46 2.46 0 0 1-.82-.86v-.01c-.12-.2-.22-.42-.3-.64-.03-.1-.12-.37-.25-.4l-.21.03c.1.79.48 1.54 1.27 2.19 3.15 2.56 5.92-.7 6.68-1.86.46-.7.09-1.6-.44-2.39z" opacity=".5"/>
      <path fill="var(--color5, #de9f2d)" d="M23.47 13.82a6.82 6.82 0 0 1-4.34 2.25.35.35 0 0 0-.35.35c0 .06.02.12.05.18.31.54.53 1.19.63 1.87v.03c.06.4.4.72.83.72h.02a5.47 5.47 0 0 0 3.55-1.5c1.41-1.3.68-3 .23-3.75-.12-.2-.46-.34-.62-.15z"/>
      <path fill="var(--color2, #ffd324)" d="M24.31 16.72c-.16.35-.41.64-.72.85-.3.18-.63.17-.96.17h-.05a.9.9 0 0 0-.66.28c-.13.13-.27.25-.41.35-.27.2-.6.33-.97.34-.56-.01-.73-.51-.93-.94a2.7 2.7 0 0 0-.4-.69.34.34 0 0 0-.2-.11c.23.48.38 1 .45 1.53.06.41.4.73.82.73h.03a5.45 5.45 0 0 0 3.55-1.5c.5-.44.83-1.09.83-1.8v-.04c-.11.32-.24.6-.39.86l.01-.03z" opacity=".5"/>
      <path fill="var(--color5, #de9f2d)" d="m23.7 18.78.01-.05c0-.12-.1-.22-.22-.23a.23.23 0 0 0-.13.04c-.67.44-2.06 1.18-3.4.87-.2-.05-.39.16-.37.37.03.63-.14 1.26-.5 1.79a.41.41 0 0 0 .33.65c1.29.02 3.73-.41 4.29-3.44z"/>
      <path fill="var(--color2, #ffd324)" d="M21.67 21.53c-.43.15-1.25.32-1.57-.14-.18-.26-.13-.62-.16-.92-.02-.22-.07-.54-.35-.47 0 .56-.18 1.11-.5 1.58a.41.41 0 0 0 .34.65c.9 0 2.4-.21 3.38-1.4-.32.29-.7.52-1.1.69h-.03z" opacity=".5"/>
      <path fill="var(--color6, #fcee21)" d="M22.9 10.84a.56.56 0 0 0-.12-.23 9.1 9.1 0 0 0-2.1-2.06c-.64-.4-1.74-.71-2.44-.42-1.58.68-2.5 3.6-1.72 5.1.8 1.55 3.37 1.22 4.6.44a4.95 4.95 0 0 0 1.82-1.84 1.1 1.1 0 0 0-.05-1v.01zm1.06 3.53a.2.2 0 0 0-.25-.14h-.03a.19.19 0 0 0-.16.09c-.37.53-1.01.94-1.57 1.26-.29.17-.62.33-.97.45l-.04.01c-.31.1-.7.13-.98.3-.73.43-.1 1.63.56 1.77.45.1.87-.12 1.2-.42.12-.1.22-.39.35-.48.26-.2.41.07.76.09a.79.79 0 0 0 .47-.08c1-.55.95-1.94.66-2.85zm-1.08 4.77-.14.1c-.4.2-.88.34-1.38.38-.3.03-.68 0-.9.24-.32.33-.19.94.16 1.2.43.35 1 .09 1.39-.17.45-.3 1.21-.94 1.24-1.52v-.03c0-.14-.1-.25-.24-.25-.05 0-.1.02-.13.05z" opacity=".2"/>
    </symbol>
    <symbol id="icon-arrow-right" viewBox="0 0 32 32">
      <path d="m23.9 17.28-3.3 3.31 1.8 1.81 6.4-6.4-6.4-6.4-1.8 1.8 3.3 3.32H3.2v2.56h20.7z"/>
    </symbol>
    <symbol id="icon-map-pin" viewBox="0 0 32 32">
      <path d="M16 2.333c-6.075 0-11 4.925-11 11 0 4.267 2.76 8.36 5.733 11.467 1.595 1.681 3.316 3.208 5.161 4.578l.106.075c.307-.227.747-.533 1.253-.947 1.093-.88 2.56-2.133 4.027-3.68 2.96-3.12 5.72-7.213 5.72-11.48v-.013c0-6.075-4.925-11-11-11zm0 28.334-.56.827-.04-.027c-.225-.147-.39-.261-.553-.378l.046.032c-2.087-1.53-3.926-3.149-5.611-4.917l-.016-.017c-3.027-3.2-6.267-7.787-6.267-12.853 0-7.18 5.82-13 13-13s13 5.82 13 13c0 5.067-3.24 9.64-6.267 12.853-1.84 1.924-3.846 3.659-6.005 5.193l-.128.087-.027.027h-.013l-.56-.827zm0 0 .56.827c-.157.107-.351.172-.56.172s-.403-.064-.563-.174l.003.002.56-.827z"/>
      <path d="M16 10.333c-1.657 0-3 1.343-3 3s1.343 3 3 3 3-1.343 3-3-1.343-3-3-3zm-5 3c0-2.761 2.239-5 5-5s5 2.239 5 5-2.239 5-5 5-5-2.239-5-5z"/>
    </symbol>
    <symbol id="icon-calendar" viewBox="0 0 32 32">
      <path d="M6.667 6.333C5.747 6.333 5 7.08 5 8v18.667c0 .92.747 1.667 1.667 1.667h18.667c.92 0 1.667-.747 1.667-1.667V8c0-.92-.747-1.667-1.667-1.667H6.667zM3 8c0-2.025 1.642-3.667 3.667-3.667h18.667c2.025 0 3.667 1.642 3.667 3.667v18.667c0 2.025-1.642 3.667-3.667 3.667H6.667C4.642 30.334 3 28.692 3 26.667V8z"/>
      <path d="M21.333 1.667c.547 0 1 .453 1 1V8c0 .552-.448 1-1 1s-1-.448-1-1V2.667c0-.547.453-1 1-1zm-10.666 0c.547 0 1 .453 1 1V8c0 .552-.448 1-1 1s-1-.448-1-1V2.667c0-.547.453-1 1-1zM3 13.333c0-.547.453-1 1-1h24c.552 0 1 .448 1 1s-.448 1-1 1H4c-.552 0-1-.448-1-1z"/>
    </symbol>
    <symbol id="icon-smartphone" viewBox="0 0 32 32">
      <path stroke-linecap="round" stroke-linejoin="round" stroke-width="2" d="M22.667 2.667H9.334c-1.473 0-2.667 1.194-2.667 2.667v21.333c0 1.467 1.2 2.667 2.667 2.667h13.333c1.473 0 2.667-1.194 2.667-2.667V5.334c0-1.473-1.194-2.667-2.667-2.667zM16 24h.013"/>
    </symbol>
  </defs>
</svg>
