<svg xmlns="http://www.w3.org/2000/svg" aria-hidden="true" overflow="hidden" style="position:absolute;width:0;height:0">
  <defs>
    <symbol id="icon-logo" viewBox="0 0 33 32">
      <path fill="var(--color1, #ffe6a3)" stroke="var(--color2, #ffd324)" stroke-width="2.86" d="M21.57 27.73a12.5 12.5 0 0 0 4.5-17.07l.04.05a12.39 12.39 0 0 0-17-4.52l.06-.03a12.5 12.5 0 0 0-4.5 17.07l-.04-.06a12.39 12.39 0 0 0 17 4.53l-.06.03z"/>
      <path fill="var(--color3, #27120a)" d="M11.8 16.81a5.8 5.8 0 0 1 2.04-6.09h.02a5.75 5.75 0 0 1 8.67 2l.01.03a5.8 5.8 0 0 1-.84 6.39 5.74 5.74 0 0 1-7.24 1.17l.03.02a5.82 5.82 0 0 1-2.68-3.48l-.01-.04zm10.62-2.85a5.27 5.27 0 0 0-4.34-3.85h-.03a5.2 5.2 0 0 0-5.2 2.55v.03a5.21 5.21 0 0 0 .38 5.84v-.02a5.23 5.23 0 0 0 5.53 1.87l-.04.01a5.27 5.27 0 0 0 3.16-2.42l.01-.03a5.22 5.22 0 0 0 .52-4.02l.01.04z"/>
      <path fill="var(--color4, #4d2211)" d="M24.58 14.03a1.11 1.11 0 0 0-.47-.42l.04-.06.1-.2.04-.08.06-.13.02-.08v-.01c.03-.1.05-.22.06-.35l.01-.1v-.33c-.02-.04-.02-.07-.02-.1l-.02-.1-.02-.12-.03-.09-.03-.12-.03-.08-.04-.11-.02-.07-.06-.13a8.92 8.92 0 0 0-2.04-2.62c-.2-.17-2.01-1.7-3.72-1.52-.14.02-.27.04-.4.08h.02c-.27.06-.63.32-1.01.7-.1-.11-.24-.2-.4-.26a4.76 4.76 0 0 0-1.96-.25c-1 .09-1.86.67-2.33 1.5v.01l-.06.1a.8.8 0 0 0-.6.02 4.5 4.5 0 0 0-2.88 5.3l.02.14v.01l.03.15a1.01 1.01 0 0 0 1.1.79h-.01c.24-.03.46-.14.63-.32.34-.35.79-.6 1.3-.67a.96.96 0 0 0 .5-.24c.2.09.44.13.67.1.6-.03 1.19.04 1.76.22a.93.93 0 0 0 .84-.15l.02.03.01.03.09.13.02.03.09.12.02.03.1.12.03.03.1.12.03.04.1.1.05.04.1.09.05.06c.24.2.51.4.8.58l.02.02.16.09c.14.08.3.16.47.23h.02l.32.12a.94.94 0 0 0 .06.8l.16.34.01.02.07.15.02.05.05.13.03.07.06.19v.02l.06.2.02.06.03.16.01.06.04.23c.03.25.13.48.28.68a.96.96 0 0 0-.15.57v.17c0 .15-.02.3-.05.44v-.02.03l-.03.14v.02l-.05.14v.01l-.06.15v.02c-.04.07-.06.12-.1.16h.01v.01l-.1.15a1.01 1.01 0 0 0 .81 1.59h.42l.2-.02h.08l.14-.02h.03c.16-.02.31-.05.47-.09l-.13-.58.14.58c1-.2 1.87-.73 2.5-1.47.51-.65.88-1.44 1.02-2.3v-.03l.02-.15a.81.81 0 0 0-.16-.48l.12-.1.15-.14.04-.04.09-.1.04-.04v-.02l.08-.08.04-.07.06-.08.05-.07.06-.09.03-.06.05-.09.03-.07.05-.1.03-.06.05-.15.02-.05.01-.03.02-.07.02-.08v-.02l.02-.06.02-.09.01-.06.01-.1.01-.06.01-.09v-.2c.02-.94-.36-1.79-.68-2.33z"/>
      <path fill="var(--color5, #de9f2d)" d="M16.66 8.5c-.49.82-1.52 2.84-1.22 4.75a.36.36 0 0 1-.27.41.34.34 0 0 1-.19 0 5.27 5.27 0 0 0-2.05-.24c-.41 0-.75-.3-.81-.68a5.4 5.4 0 0 1 .75-3.83l-.01.02c.97-1.65 2.77-1.28 3.6-1 .15.06.26.2.26.36v.04c-.01.06-.03.11-.06.16z"/>
      <path fill="var(--color2, #ffd324)" d="m16.13 9.51-.02-.01c-.1-.06-.2.1-.25.18-.18.3-.2.68-.4.98-.1.17-.25.3-.36.46-.14.2-.16.45-.21.68-.07.31-.17.6-.43.81a1.76 1.76 0 0 1-1.64.19h.02c-.7-.29-.76-1.08-.73-1.81a5.3 5.3 0 0 0 .01 1.75.83.83 0 0 0 .89.68 5.2 5.2 0 0 1 2.09.26.35.35 0 0 0 .34-.43c-.2-1.34.24-2.74.69-3.74z" opacity=".5"/>
      <path fill="var(--color5, #de9f2d)" d="m11.92 9.3.08-.02c.1 0 .2.08.22.18v.13c-.3.76-.72 2.27-.15 3.53.09.18-.07.4-.28.44-.63.1-1.2.4-1.65.86a.41.41 0 0 1-.7-.2c-.28-1.26-.37-3.75 2.48-4.92z"/>
      <path fill="var(--color2, #ffd324)" d="M11.83 11.02c-.09 0-.11.06-.16.18-.05.15-.09.3-.1.47-.03.32-.01.65-.08.97-.12.57-.7 1.07-1.25 1.23-.4.12-.73.04-.9-.24.02.2.06.4.1.6a.42.42 0 0 0 .52.3.42.42 0 0 0 .18-.12c.43-.44 1-.75 1.64-.85h.01c.2-.03.37-.25.28-.45a3.8 3.8 0 0 1-.24-2.09z" opacity=".5"/>
      <path fill="var(--color5, #de9f2d)" d="M23.67 12.86c1-1.52-1.9-4.03-1.9-4.03s-2-1.74-3.56-1.33c-.98.26-4.36 4.66-1.21 7.22 3.15 2.56 5.92-.7 6.67-1.86z"/>
      <path fill="var(--color2, #ffd324)" d="m23.23 10.47.06.13c.34.91.06 1.9-.55 2.63-.24.32-.57.56-.95.68h-.01c-.26.08-.53.07-.79.13-.29.08-.57.2-.82.35a3 3 0 0 1-2.87.02 2.46 2.46 0 0 1-.82-.86v-.01c-.12-.2-.22-.42-.3-.64-.03-.1-.12-.37-.25-.4l-.21.03c.1.79.48 1.54 1.27 2.19 3.15 2.56 5.92-.7 6.68-1.86.46-.7.09-1.6-.44-2.39z" opacity=".5"/>
      <path fill="var(--color5, #de9f2d)" d="M23.47 13.82a6.82 6.82 0 0 1-4.34 2.25.35.35 0 0 0-.35.35c0 .06.02.12.05.18.31.54.53 1.19.63 1.87v.03c.06.4.4.72.83.72h.02a5.47 5.47 0 0 0 3.55-1.5c1.41-1.3.68-3 .23-3.75-.12-.2-.46-.34-.62-.15z"/>
      <path fill="var(--color2, #ffd324)" d="M24.31 16.72c-.16.35-.41.64-.72.85-.3.18-.63.17-.96.17h-.05a.9.9 0 0 0-.66.28c-.13.13-.27.25-.41.35-.27.2-.6.33-.97.34-.56-.01-.73-.51-.93-.94a2.7 2.7 0 0 0-.4-.69.34.34 0 0 0-.2-.11c.23.48.38 1 .45 1.53.06.41.4.73.82.73h.03a5.45 5.45 0 0 0 3.55-1.5c.5-.44.83-1.09.83-1.8v-.04c-.11.32-.24.6-.39.86l.01-.03z" opacity=".5"/>
      <path fill="var(--color5, #de9f2d)" d="m23.7 18.78.01-.05c0-.12-.1-.22-.22-.23a.23.23 0 0 0-.13.04c-.67.44-2.06 1.18-3.4.87-.2-.05-.39.16-.37.37.03.63-.14 1.26-.5 1.79a.41.41 0 0 0 .33.65c1.29.02 3.73-.41 4.29-3.44z"/>
      <path fill="var(--color2, #ffd324)" d="M21.67 21.53c-.43.15-1.25.32-1.57-.14-.18-.26-.13-.62-.16-.92-.02-.22-.07-.54-.35-.47 0 .56-.18 1.11-.5 1.58a.41.41 0 0 0 .34.65c.9 0 2.4-.21 3.38-1.4-.32.29-.7.52-1.1.69h-.03z" opacity=".5"/>
      <path fill="var(--color6, #fcee21)" d="M22.9 10.84a.56.56 0 0 0-.12-.23 9.1 9.1 0 0 0-2.1-2.06c-.64-.4-1.74-.71-2.44-.42-1.58.68-2.5 3.6-1.72 5.1.8 1.55 3.37 1.22 4.6.44a4.95 4.95 0 0 0 1.82-1.84 1.1 1.1 0 0 0-.05-1v.01zm1.06 3.53a.2.2 0 0 0-.25-.14h-.03a.19.19 0 0 0-.16.09c-.37.53-1.01.94-1.57 1.26-.29.17-.62.33-.97.45l-.04.01c-.31.1-.7.13-.98.3-.73.43-.1 1.63.56 1.77.45.1.87-.12 1.2-.42.12-.1.22-.39.35-.48.26-.2.41.07.76.09a.79.79 0 0 0 .47-.08c1-.55.95-1.94.66-2.85zm-1.08 4.77-.14.1c-.4.2-.88.34-1.38.38-.3.03-.68 0-.9.24-.32.33-.19.94.16 1.2.43.35 1 .09 1.39-.17.45-.3 1.21-.94 1.24-1.52v-.03c0-.14-.1-.25-.24-.25-.05 0-.1.02-.13.05z" opacity=".2"/>
    </symbol>
    <symbol id="icon-logo-bakery" viewBox="0 0 187 32">
      <path fill="var(--color7, #fff)" d="M21.81.6c-.27-.3-.66-.5-1.1-.5H2.3c-.45 0-.83.17-1.13.5A1.6 1.6 0 0 0 .7 1.79v26.3c0 .48.15.89.46 1.22.3.31.69.46 1.12.46h2.96c1.03 0 1.54-.56 1.54-1.68V6.38h9.41v21.7c0 1.12.51 1.68 1.55 1.68h2.95c.45 0 .83-.15 1.12-.46.31-.33.46-.75.46-1.22V1.78c0-.48-.15-.86-.46-1.17zm14.71 5.9v4.95h6.38c.44 0 .82.15 1.12.46.31.33.46.72.46 1.17v2.8c0 .44-.15.84-.46 1.17-.3.3-.68.45-1.12.45h-6.38v6.03h8.84c.44 0 .82.17 1.13.5.3.31.46.7.46 1.18v2.88c0 .48-.16.88-.46 1.21-.31.31-.69.46-1.13.46H32.82c-.66 0-1.23-.24-1.7-.75a2.55 2.55 0 0 1-.68-1.72V2.77c0-.7.25-1.28.72-1.76.41-.5.96-.74 1.66-.74h12.54c.44 0 .82.15 1.13.46.3.33.46.73.46 1.2v2.88c0 .48-.16.88-.46 1.17-.31.35-.69.52-1.13.52h-8.84zm18.7 23.26c-.44 0-.81-.15-1.12-.46-.28-.3-.46-.7-.46-1.16V1.94c0-.47.15-.87.46-1.2.31-.32.68-.47 1.12-.47h2.92c.44 0 .82.16 1.12.47.31.33.46.73.46 1.2v10.13h.05l8.2-10.92a2.03 2.03 0 0 1 1.75-.88h3.34c1.02 0 1.53.52 1.53 1.55 0 .3-.1.64-.33 1l-9.2 12.06 9.24 12.41c.22.31.32.63.32.96 0 1.04-.5 1.55-1.53 1.55l-3.42-.04a2 2 0 0 1-1.7-.88l-8.02-10.75h-.22v10c0 .44-.14.84-.45 1.17-.3.3-.69.46-1.13.46h-2.92zm48.6-2.3c.03.1.04.32.04.58 0 .48-.15.89-.45 1.22-.34.33-.74.5-1.21.5h-2.63c-.99 0-1.63-.5-1.92-1.5l-1.45-4.99h-7.45l-1.5 4.99c-.27 1-.9 1.5-1.87 1.5h-2.61a1.64 1.64 0 0 1-1.64-1.71c0-.28.01-.48.04-.6l8-25.91c.27-.99.91-1.48 1.91-1.48h2.83c1 0 1.64.5 1.92 1.46l8 25.94zM92.47 10.47l-1.96 6.75h3.91l-1.95-6.75zm37.7-.41a9.7 9.7 0 0 1-2.7 6.86 8.73 8.73 0 0 1-6.58 2.97h-2.96v8.2c0 1.12-.51 1.67-1.54 1.67h-2.96c-1.03 0-1.54-.55-1.54-1.67V2.79c0-.68.22-1.26.66-1.76.48-.5 1.05-.75 1.71-.75h6.55c2.58 0 4.8.98 6.66 2.96a9.6 9.6 0 0 1 2.7 6.7v.14-.01zm-6.08 0c0-1-.35-1.86-1.04-2.56a3.12 3.12 0 0 0-2.36-1.08H117.92v7.32h2.67c.95 0 1.76-.37 2.45-1.09a3.62 3.62 0 0 0 1.05-2.55v-.05zM157.03.1c.45 0 .83.16 1.14.5.3.3.46.7.46 1.17v26.3c0 .48-.16.89-.46 1.22-.31.31-.69.46-1.13.46h-2.96c-1.02 0-1.54-.56-1.54-1.68v-10.4h-9.42v10.4c0 1.13-.5 1.68-1.53 1.68h-2.97c-.43 0-.8-.15-1.12-.46-.3-.33-.46-.75-.46-1.21V1.79c0-.49.15-.87.46-1.18.31-.34.69-.5 1.13-.5h2.96c.44 0 .8.16 1.08.5.3.3.46.7.46 1.17v9.7h9.41v-9.7c0-.48.15-.86.46-1.17.27-.34.64-.5 1.08-.5h2.96zm15.39 9.49c0-.92.27-1.69.83-2.3.55-.55 1.3-.88 2.13-.88h3.07v6.27h-3.06a2.99 2.99 0 0 1-2.99-2.98v-.12.01zm-6.67 18.48c0 .49.15.89.46 1.22.3.31.7.46 1.17.46h2.99c.7 0 1.23-.3 1.63-.92l5.87-10h.58v9.24c0 .49.15.89.46 1.22.3.31.69.46 1.12.46h2.93c.43 0 .8-.15 1.12-.46.3-.33.45-.75.45-1.21V2.79c0-.71-.23-1.29-.7-1.77-.43-.5-.97-.74-1.67-.74h-6.87c-2.53 0-4.66.91-6.41 2.75a9.02 9.02 0 0 0-2.59 6.54v-.01a9.3 9.3 0 0 0 5.24 8.42l.06.03-5.6 9.16c-.15.28-.24.59-.24.92z"/>
    </symbol>
    <symbol id="icon-arrow-right" viewBox="0 0 32 32">
      <path d="m23.9 17.28-3.3 3.31 1.8 1.81 6.4-6.4-6.4-6.4-1.8 1.8 3.3 3.32H3.2v2.56h20.7z"/>
    </symbol>
  </defs>
</svg>
